<svg width="14" height="14" viewBox="0 0 14 14" fill="none" xmlns="http://www.w3.org/2000/svg">
<g id="ep:arrow-right-bold">
<path id="Vector" d="M4.67001 1.5411C4.50863 1.70254 4.41797 1.92145 4.41797 2.14972C4.41797 2.37798 4.50863 2.5969 4.67001 2.75833L8.93117 7.01949L4.67001 11.2806C4.5132 11.443 4.42643 11.6605 4.4284 11.8862C4.43036 12.1119 4.52089 12.3278 4.6805 12.4874C4.8401 12.647 5.05601 12.7375 5.28172 12.7395C5.50743 12.7415 5.72488 12.6547 5.88724 12.4979L10.757 7.6281C10.9184 7.46667 11.0091 7.24775 11.0091 7.01949C11.0091 6.79123 10.9184 6.57231 10.757 6.41088L5.88724 1.5411C5.72581 1.37972 5.50689 1.28906 5.27862 1.28906C5.05036 1.28906 4.83144 1.37972 4.67001 1.5411Z" fill="#32CD32"/>
</g>
</svg>
