<?xml version="1.0" encoding="UTF-8" standalone="no" ?>
<!DOCTYPE svg PUBLIC "-//W3C//DTD SVG 1.1//EN" "http://www.w3.org/Graphics/SVG/1.1/DTD/svg11.dtd">
<svg xmlns="http://www.w3.org/2000/svg" xmlns:xlink="http://www.w3.org/1999/xlink" version="1.1" width="16" height="19" viewBox="0 0 16 19" xml:space="preserve">
<desc>Created with Fabric.js 5.3.0</desc>
<defs>
</defs>
<g transform="matrix(1 0 0 1 8 9.5)" id="mM0O1CdhKHM8J3kIusRkq"  >
<path style="stroke: none; stroke-width: 1; stroke-dasharray: none; stroke-linecap: butt; stroke-dashoffset: 0; stroke-linejoin: miter; stroke-miterlimit: 4; fill: rgb(50,205,50); fill-rule: nonzero; opacity: 1;" vector-effect="non-scaling-stroke"  transform=" translate(-7.6964375, -9.502181)" d="M 13.6995 7.50114 C 13.6995 5.90903 13.0671 4.38213 11.9413 3.25633 C 10.8155 2.13054 9.28857 1.49808 7.69646 1.49808 C 6.10435 1.49808 4.57744 2.13054 3.45165 3.25633 C 2.32585 4.38213 1.69339 5.90903 1.69339 7.50114 C 1.69339 9.96373 3.66373 13.1734 7.69646 17.018 C 11.7292 13.1734 13.6995 9.96373 13.6995 7.50114 Z M 7.69646 18.8403 C 2.80463 14.394 0.359375 10.6134 0.359375 7.50114 C 0.359375 5.55523 1.13239 3.68901 2.50836 2.31304 C 3.88433 0.937074 5.75054 0.164063 7.69646 0.164062 C 9.64237 0.164063 11.5086 0.937074 12.8846 2.31304 C 14.2605 3.68901 15.0335 5.55523 15.0335 7.50114 C 15.0335 10.6134 12.5883 14.394 7.69646 18.8403 Z" stroke-linecap="round" />
</g>
<g transform="matrix(1 0 0 1 8 7.525974026)" id="rhz3cE-HL5qEKwTZpjI0z"  >
<path style="stroke: none; stroke-width: 1; stroke-dasharray: none; stroke-linecap: butt; stroke-dashoffset: 0; stroke-linejoin: miter; stroke-miterlimit: 4; fill: rgb(50,205,50); fill-rule: nonzero; opacity: 1;" vector-effect="non-scaling-stroke"  transform=" translate(-3.699415, -3.5381625)" d="M 3.69942 5.53918 C 4.23012 5.53918 4.73909 5.32836 5.11435 4.9531 C 5.48962 4.57783 5.70044 4.06887 5.70044 3.53816 C 5.70044 3.00746 5.48962 2.49849 5.11435 2.12323 C 4.73909 1.74796 4.23012 1.53714 3.69942 1.53714 C 3.16871 1.53714 2.65974 1.74796 2.28448 2.12323 C 1.90922 2.49849 1.69839 3.00746 1.69839 3.53816 C 1.69839 4.06887 1.90922 4.57783 2.28448 4.9531 C 2.65974 5.32836 3.16871 5.53918 3.69942 5.53918 Z M 3.69942 6.8732 C 2.81491 6.8732 1.96663 6.52183 1.34119 5.89639 C 0.715749 5.27095 0.36438 4.42267 0.36438 3.53816 C 0.36438 2.65366 0.715749 1.80538 1.34119 1.17993 C 1.96663 0.554494 2.81491 0.203125 3.69942 0.203125 C 4.58392 0.203125 5.4322 0.554494 6.05764 1.17993 C 6.68309 1.80538 7.03445 2.65366 7.03445 3.53816 C 7.03445 4.42267 6.68309 5.27095 6.05764 5.89639 C 5.4322 6.52183 4.58392 6.8732 3.69942 6.8732 Z" stroke-linecap="round" />
</g>
</svg>